# xmcd CD database file
#
# Track frame offsets:
#	150
#	21517
#	38942
#	59292
#	75690
#	95852
#	113485
#	132295
#	154837
#	174562
#	192250
#	213725
#
# Disc length: 3113 seconds
#
# Revision: 3
# Processed by: cddbd v1.5.1PL0 Copyright (c) Steve Scherf et al.
# Submitted via: CDex 1.51
#
DISCID=a90c270c
DTITLE=Regina Belle - This Is Regina
DYEAR=2001
DGENRE=Soul
TTITLE0=Oooh Boy
TTITLE1=Let Me Hold You
TTITLE2=From Now On
TTITLE3=La Da Di
TTITLE4=Gotta Get Over This Love
TTITLE5=Don't Wanna Go Home
TTITLE6=Someone Who Needs Me
TTITLE7=Take My Time
TTITLE8=Johnny's Back
TTITLE9=You Said
TTITLE10=Gotta Go Back
TTITLE11=What If
EXTD=YEAR: 2001
EXTT0=
EXTT1=
EXTT2=
EXTT3=
EXTT4=
EXTT5=
EXTT6=
EXTT7=
EXTT8=
EXTT9=
EXTT10=
EXTT11=
PLAYORDER=
